<mxfile host="app.diagrams.net" agent="Mozilla/5.0 (Windows NT 10.0; Win64; x64) AppleWebKit/537.36 (KHTML, like Gecko) Chrome/128.0.0.0 Safari/537.36" version="24.7.16">
  <diagram id="C5RBs43oDa-KdzZeNtuy" name="Page-1">
    <mxGraphModel dx="1153" dy="1069" grid="1" gridSize="10" guides="1" tooltips="1" connect="1" arrows="1" fold="1" page="1" pageScale="1" pageWidth="827" pageHeight="1169" math="0" shadow="0">
      <root>
        <mxCell id="WIyWlLk6GJQsqaUBKTNV-0" />
        <mxCell id="WIyWlLk6GJQsqaUBKTNV-1" parent="WIyWlLk6GJQsqaUBKTNV-0" />
        <mxCell id="PLwJSdtMmrsDeWvEefyB-0" value="Participante" style="rounded=0;whiteSpace=wrap;html=1;" vertex="1" parent="WIyWlLk6GJQsqaUBKTNV-1">
          <mxGeometry x="530" y="560" width="120" height="50" as="geometry" />
        </mxCell>
        <mxCell id="PLwJSdtMmrsDeWvEefyB-1" value="Nome&lt;div&gt;&lt;/div&gt;" style="ellipse;whiteSpace=wrap;html=1;" vertex="1" parent="WIyWlLk6GJQsqaUBKTNV-1">
          <mxGeometry x="430" y="490" width="100" height="40" as="geometry" />
        </mxCell>
        <mxCell id="PLwJSdtMmrsDeWvEefyB-2" value="Codinome&lt;hr&gt;" style="ellipse;whiteSpace=wrap;html=1;" vertex="1" parent="WIyWlLk6GJQsqaUBKTNV-1">
          <mxGeometry x="390" y="565" width="100" height="40" as="geometry" />
        </mxCell>
        <mxCell id="PLwJSdtMmrsDeWvEefyB-11" value="" style="endArrow=none;html=1;rounded=0;exitX=1;exitY=0.725;exitDx=0;exitDy=0;exitPerimeter=0;entryX=0.35;entryY=-0.06;entryDx=0;entryDy=0;entryPerimeter=0;" edge="1" parent="WIyWlLk6GJQsqaUBKTNV-1" source="PLwJSdtMmrsDeWvEefyB-1" target="PLwJSdtMmrsDeWvEefyB-0">
          <mxGeometry width="50" height="50" relative="1" as="geometry">
            <mxPoint x="540" y="530" as="sourcePoint" />
            <mxPoint x="590" y="480" as="targetPoint" />
          </mxGeometry>
        </mxCell>
        <mxCell id="PLwJSdtMmrsDeWvEefyB-12" value="" style="endArrow=none;html=1;rounded=0;exitX=1;exitY=0.35;exitDx=0;exitDy=0;exitPerimeter=0;entryX=0;entryY=0.25;entryDx=0;entryDy=0;" edge="1" parent="WIyWlLk6GJQsqaUBKTNV-1" target="PLwJSdtMmrsDeWvEefyB-0">
          <mxGeometry width="50" height="50" relative="1" as="geometry">
            <mxPoint x="460" y="579" as="sourcePoint" />
            <mxPoint x="520" y="550" as="targetPoint" />
            <Array as="points" />
          </mxGeometry>
        </mxCell>
        <mxCell id="PLwJSdtMmrsDeWvEefyB-13" value="Mensagem" style="rounded=0;whiteSpace=wrap;html=1;" vertex="1" parent="WIyWlLk6GJQsqaUBKTNV-1">
          <mxGeometry x="910" y="620" width="120" height="50" as="geometry" />
        </mxCell>
        <mxCell id="PLwJSdtMmrsDeWvEefyB-14" value="ENVIA" style="rhombus;whiteSpace=wrap;html=1;" vertex="1" parent="WIyWlLk6GJQsqaUBKTNV-1">
          <mxGeometry x="740" y="555" width="109" height="60" as="geometry" />
        </mxCell>
        <mxCell id="PLwJSdtMmrsDeWvEefyB-15" value="" style="endArrow=none;html=1;rounded=0;exitX=1;exitY=0.25;exitDx=0;exitDy=0;targetPerimeterSpacing=0;entryX=0;entryY=0.5;entryDx=0;entryDy=0;" edge="1" parent="WIyWlLk6GJQsqaUBKTNV-1" source="PLwJSdtMmrsDeWvEefyB-0" target="PLwJSdtMmrsDeWvEefyB-14">
          <mxGeometry width="50" height="50" relative="1" as="geometry">
            <mxPoint x="660" y="570" as="sourcePoint" />
            <mxPoint x="719" y="520" as="targetPoint" />
          </mxGeometry>
        </mxCell>
        <mxCell id="PLwJSdtMmrsDeWvEefyB-18" value="Texto" style="ellipse;whiteSpace=wrap;html=1;" vertex="1" parent="WIyWlLk6GJQsqaUBKTNV-1">
          <mxGeometry x="928" y="730" width="68" height="40" as="geometry" />
        </mxCell>
        <mxCell id="PLwJSdtMmrsDeWvEefyB-20" value="Ramal" style="ellipse;whiteSpace=wrap;html=1;" vertex="1" parent="WIyWlLk6GJQsqaUBKTNV-1">
          <mxGeometry x="470" y="630" width="80" height="40" as="geometry" />
        </mxCell>
        <mxCell id="PLwJSdtMmrsDeWvEefyB-21" value="" style="endArrow=none;html=1;rounded=0;exitX=0.5;exitY=0;exitDx=0;exitDy=0;entryX=0.075;entryY=1.06;entryDx=0;entryDy=0;entryPerimeter=0;" edge="1" parent="WIyWlLk6GJQsqaUBKTNV-1" source="PLwJSdtMmrsDeWvEefyB-20" target="PLwJSdtMmrsDeWvEefyB-0">
          <mxGeometry width="50" height="50" relative="1" as="geometry">
            <mxPoint x="510" y="670" as="sourcePoint" />
            <mxPoint x="560" y="620" as="targetPoint" />
          </mxGeometry>
        </mxCell>
        <mxCell id="PLwJSdtMmrsDeWvEefyB-24" value="Sugestão" style="rounded=0;whiteSpace=wrap;html=1;" vertex="1" parent="WIyWlLk6GJQsqaUBKTNV-1">
          <mxGeometry x="720" y="730" width="120" height="60" as="geometry" />
        </mxCell>
        <mxCell id="PLwJSdtMmrsDeWvEefyB-25" value="FORNECE_UMA" style="rhombus;whiteSpace=wrap;html=1;" vertex="1" parent="WIyWlLk6GJQsqaUBKTNV-1">
          <mxGeometry x="640" y="650" width="120" height="60" as="geometry" />
        </mxCell>
        <mxCell id="PLwJSdtMmrsDeWvEefyB-27" value="" style="endArrow=none;html=1;rounded=0;entryX=0.5;entryY=0;entryDx=0;entryDy=0;exitX=1;exitY=1;exitDx=0;exitDy=0;" edge="1" parent="WIyWlLk6GJQsqaUBKTNV-1" source="PLwJSdtMmrsDeWvEefyB-25" target="PLwJSdtMmrsDeWvEefyB-24">
          <mxGeometry width="50" height="50" relative="1" as="geometry">
            <mxPoint x="750" y="790" as="sourcePoint" />
            <mxPoint x="800" y="740" as="targetPoint" />
          </mxGeometry>
        </mxCell>
        <mxCell id="PLwJSdtMmrsDeWvEefyB-29" value="" style="shape=link;html=1;rounded=0;entryX=0.5;entryY=0;entryDx=0;entryDy=0;exitX=1;exitY=1;exitDx=0;exitDy=0;" edge="1" parent="WIyWlLk6GJQsqaUBKTNV-1" source="PLwJSdtMmrsDeWvEefyB-0" target="PLwJSdtMmrsDeWvEefyB-25">
          <mxGeometry width="100" relative="1" as="geometry">
            <mxPoint x="610" y="640" as="sourcePoint" />
            <mxPoint x="710" y="640" as="targetPoint" />
          </mxGeometry>
        </mxCell>
        <mxCell id="PLwJSdtMmrsDeWvEefyB-30" value="Notificação" style="rounded=0;whiteSpace=wrap;html=1;" vertex="1" parent="WIyWlLk6GJQsqaUBKTNV-1">
          <mxGeometry x="980" y="450" width="110" height="40" as="geometry" />
        </mxCell>
        <mxCell id="PLwJSdtMmrsDeWvEefyB-32" value="MANDA_UMA" style="rhombus;whiteSpace=wrap;html=1;" vertex="1" parent="WIyWlLk6GJQsqaUBKTNV-1">
          <mxGeometry x="1110" y="540" width="100" height="50" as="geometry" />
        </mxCell>
        <mxCell id="PLwJSdtMmrsDeWvEefyB-34" value="Data_notif" style="ellipse;whiteSpace=wrap;html=1;" vertex="1" parent="WIyWlLk6GJQsqaUBKTNV-1">
          <mxGeometry x="1090" y="380" width="74" height="40" as="geometry" />
        </mxCell>
        <mxCell id="PLwJSdtMmrsDeWvEefyB-36" value="Data_mensag" style="ellipse;whiteSpace=wrap;html=1;" vertex="1" parent="WIyWlLk6GJQsqaUBKTNV-1">
          <mxGeometry x="1020" y="720" width="90" height="40" as="geometry" />
        </mxCell>
        <mxCell id="PLwJSdtMmrsDeWvEefyB-39" value="Sorteio" style="rounded=0;whiteSpace=wrap;html=1;" vertex="1" parent="WIyWlLk6GJQsqaUBKTNV-1">
          <mxGeometry x="580" y="340" width="120" height="60" as="geometry" />
        </mxCell>
        <mxCell id="PLwJSdtMmrsDeWvEefyB-40" value="PARTICIPA_DO" style="rhombus;whiteSpace=wrap;html=1;" vertex="1" parent="WIyWlLk6GJQsqaUBKTNV-1">
          <mxGeometry x="550" y="440" width="110" height="60" as="geometry" />
        </mxCell>
        <mxCell id="PLwJSdtMmrsDeWvEefyB-41" value="" style="endArrow=none;html=1;rounded=0;entryX=0.5;entryY=0;entryDx=0;entryDy=0;exitX=0.5;exitY=1;exitDx=0;exitDy=0;" edge="1" parent="WIyWlLk6GJQsqaUBKTNV-1" source="PLwJSdtMmrsDeWvEefyB-40" target="PLwJSdtMmrsDeWvEefyB-0">
          <mxGeometry width="50" height="50" relative="1" as="geometry">
            <mxPoint x="570" y="700" as="sourcePoint" />
            <mxPoint x="620" y="650" as="targetPoint" />
          </mxGeometry>
        </mxCell>
        <mxCell id="PLwJSdtMmrsDeWvEefyB-42" value="" style="endArrow=none;html=1;rounded=0;entryX=0.5;entryY=0;entryDx=0;entryDy=0;exitX=0.5;exitY=1;exitDx=0;exitDy=0;" edge="1" parent="WIyWlLk6GJQsqaUBKTNV-1" source="PLwJSdtMmrsDeWvEefyB-39" target="PLwJSdtMmrsDeWvEefyB-40">
          <mxGeometry width="50" height="50" relative="1" as="geometry">
            <mxPoint x="500" y="850" as="sourcePoint" />
            <mxPoint x="550" y="800" as="targetPoint" />
          </mxGeometry>
        </mxCell>
        <mxCell id="PLwJSdtMmrsDeWvEefyB-46" value="GERA" style="rhombus;whiteSpace=wrap;html=1;" vertex="1" parent="WIyWlLk6GJQsqaUBKTNV-1">
          <mxGeometry x="828" y="410" width="100" height="60" as="geometry" />
        </mxCell>
        <mxCell id="PLwJSdtMmrsDeWvEefyB-47" value="" style="endArrow=none;html=1;rounded=0;entryX=0;entryY=0.5;entryDx=0;entryDy=0;exitX=1;exitY=0.5;exitDx=0;exitDy=0;" edge="1" parent="WIyWlLk6GJQsqaUBKTNV-1" source="PLwJSdtMmrsDeWvEefyB-39" target="PLwJSdtMmrsDeWvEefyB-46">
          <mxGeometry width="50" height="50" relative="1" as="geometry">
            <mxPoint x="760" y="930" as="sourcePoint" />
            <mxPoint x="810" y="880" as="targetPoint" />
          </mxGeometry>
        </mxCell>
        <mxCell id="PLwJSdtMmrsDeWvEefyB-48" value="" style="endArrow=none;html=1;rounded=0;entryX=0;entryY=0;entryDx=0;entryDy=0;exitX=1;exitY=0.5;exitDx=0;exitDy=0;" edge="1" parent="WIyWlLk6GJQsqaUBKTNV-1" source="PLwJSdtMmrsDeWvEefyB-46" target="PLwJSdtMmrsDeWvEefyB-30">
          <mxGeometry width="50" height="50" relative="1" as="geometry">
            <mxPoint x="950" y="870" as="sourcePoint" />
            <mxPoint x="1000" y="820" as="targetPoint" />
          </mxGeometry>
        </mxCell>
        <mxCell id="PLwJSdtMmrsDeWvEefyB-49" value="Patrocinador" style="rounded=0;whiteSpace=wrap;html=1;" vertex="1" parent="WIyWlLk6GJQsqaUBKTNV-1">
          <mxGeometry x="870" y="160" width="120" height="60" as="geometry" />
        </mxCell>
        <mxCell id="PLwJSdtMmrsDeWvEefyB-51" value="" style="endArrow=none;html=1;rounded=0;entryX=0;entryY=0;entryDx=0;entryDy=0;exitX=1;exitY=0.5;exitDx=0;exitDy=0;" edge="1" parent="WIyWlLk6GJQsqaUBKTNV-1" source="PLwJSdtMmrsDeWvEefyB-14" target="PLwJSdtMmrsDeWvEefyB-13">
          <mxGeometry width="50" height="50" relative="1" as="geometry">
            <mxPoint x="850" y="630" as="sourcePoint" />
            <mxPoint x="900" y="580" as="targetPoint" />
          </mxGeometry>
        </mxCell>
        <mxCell id="PLwJSdtMmrsDeWvEefyB-52" value="" style="endArrow=none;html=1;rounded=0;entryX=1;entryY=1;entryDx=0;entryDy=0;exitX=0.5;exitY=0;exitDx=0;exitDy=0;" edge="1" parent="WIyWlLk6GJQsqaUBKTNV-1" source="PLwJSdtMmrsDeWvEefyB-32" target="PLwJSdtMmrsDeWvEefyB-30">
          <mxGeometry width="50" height="50" relative="1" as="geometry">
            <mxPoint x="1030" y="580" as="sourcePoint" />
            <mxPoint x="1080" y="530" as="targetPoint" />
          </mxGeometry>
        </mxCell>
        <mxCell id="PLwJSdtMmrsDeWvEefyB-53" value="" style="endArrow=none;html=1;rounded=0;entryX=0.5;entryY=1;entryDx=0;entryDy=0;exitX=1;exitY=0.5;exitDx=0;exitDy=0;" edge="1" parent="WIyWlLk6GJQsqaUBKTNV-1" source="PLwJSdtMmrsDeWvEefyB-13" target="PLwJSdtMmrsDeWvEefyB-32">
          <mxGeometry width="50" height="50" relative="1" as="geometry">
            <mxPoint x="1010" y="720" as="sourcePoint" />
            <mxPoint x="1060" y="670" as="targetPoint" />
            <Array as="points" />
          </mxGeometry>
        </mxCell>
        <mxCell id="PLwJSdtMmrsDeWvEefyB-55" value="" style="endArrow=none;html=1;rounded=0;exitX=0.5;exitY=0;exitDx=0;exitDy=0;entryX=0.5;entryY=1;entryDx=0;entryDy=0;" edge="1" parent="WIyWlLk6GJQsqaUBKTNV-1" source="PLwJSdtMmrsDeWvEefyB-30" target="PLwJSdtMmrsDeWvEefyB-34">
          <mxGeometry width="50" height="50" relative="1" as="geometry">
            <mxPoint x="1010" y="720" as="sourcePoint" />
            <mxPoint x="1060" y="670" as="targetPoint" />
          </mxGeometry>
        </mxCell>
        <mxCell id="PLwJSdtMmrsDeWvEefyB-56" value="" style="endArrow=none;html=1;rounded=0;entryX=0.25;entryY=1;entryDx=0;entryDy=0;exitX=0.5;exitY=0;exitDx=0;exitDy=0;" edge="1" parent="WIyWlLk6GJQsqaUBKTNV-1" source="PLwJSdtMmrsDeWvEefyB-18" target="PLwJSdtMmrsDeWvEefyB-13">
          <mxGeometry width="50" height="50" relative="1" as="geometry">
            <mxPoint x="950" y="730" as="sourcePoint" />
            <mxPoint x="1000" y="680" as="targetPoint" />
          </mxGeometry>
        </mxCell>
        <mxCell id="PLwJSdtMmrsDeWvEefyB-57" value="" style="endArrow=none;html=1;rounded=0;entryX=0.5;entryY=1;entryDx=0;entryDy=0;exitX=0.5;exitY=0;exitDx=0;exitDy=0;" edge="1" parent="WIyWlLk6GJQsqaUBKTNV-1" source="PLwJSdtMmrsDeWvEefyB-36" target="PLwJSdtMmrsDeWvEefyB-13">
          <mxGeometry width="50" height="50" relative="1" as="geometry">
            <mxPoint x="1010" y="740" as="sourcePoint" />
            <mxPoint x="1060" y="690" as="targetPoint" />
          </mxGeometry>
        </mxCell>
        <mxCell id="PLwJSdtMmrsDeWvEefyB-58" value="ORGANIZA_UM" style="rhombus;whiteSpace=wrap;html=1;" vertex="1" parent="WIyWlLk6GJQsqaUBKTNV-1">
          <mxGeometry x="690" y="220" width="110" height="60" as="geometry" />
        </mxCell>
        <mxCell id="PLwJSdtMmrsDeWvEefyB-59" value="" style="endArrow=none;html=1;rounded=0;entryX=0;entryY=0.5;entryDx=0;entryDy=0;exitX=1;exitY=0.5;exitDx=0;exitDy=0;" edge="1" parent="WIyWlLk6GJQsqaUBKTNV-1" source="PLwJSdtMmrsDeWvEefyB-58" target="PLwJSdtMmrsDeWvEefyB-49">
          <mxGeometry width="50" height="50" relative="1" as="geometry">
            <mxPoint x="760" y="220" as="sourcePoint" />
            <mxPoint x="810" y="170" as="targetPoint" />
          </mxGeometry>
        </mxCell>
        <mxCell id="PLwJSdtMmrsDeWvEefyB-60" value="" style="endArrow=none;html=1;rounded=0;entryX=0;entryY=0.5;entryDx=0;entryDy=0;exitX=0.5;exitY=0;exitDx=0;exitDy=0;" edge="1" parent="WIyWlLk6GJQsqaUBKTNV-1" source="PLwJSdtMmrsDeWvEefyB-39" target="PLwJSdtMmrsDeWvEefyB-58">
          <mxGeometry width="50" height="50" relative="1" as="geometry">
            <mxPoint x="810" y="340" as="sourcePoint" />
            <mxPoint x="860" y="290" as="targetPoint" />
          </mxGeometry>
        </mxCell>
        <mxCell id="PLwJSdtMmrsDeWvEefyB-61" value="Avaliação" style="rounded=0;whiteSpace=wrap;html=1;" vertex="1" parent="WIyWlLk6GJQsqaUBKTNV-1">
          <mxGeometry x="530" y="830" width="100" height="50" as="geometry" />
        </mxCell>
        <mxCell id="PLwJSdtMmrsDeWvEefyB-62" value="FAZ" style="rhombus;whiteSpace=wrap;html=1;" vertex="1" parent="WIyWlLk6GJQsqaUBKTNV-1">
          <mxGeometry x="530" y="720" width="100" height="50" as="geometry" />
        </mxCell>
        <mxCell id="PLwJSdtMmrsDeWvEefyB-63" value="" style="endArrow=none;html=1;rounded=0;entryX=0.5;entryY=1;entryDx=0;entryDy=0;exitX=0.5;exitY=0;exitDx=0;exitDy=0;" edge="1" parent="WIyWlLk6GJQsqaUBKTNV-1" source="PLwJSdtMmrsDeWvEefyB-62" target="PLwJSdtMmrsDeWvEefyB-0">
          <mxGeometry width="50" height="50" relative="1" as="geometry">
            <mxPoint x="570" y="690" as="sourcePoint" />
            <mxPoint x="620" y="640" as="targetPoint" />
          </mxGeometry>
        </mxCell>
        <mxCell id="PLwJSdtMmrsDeWvEefyB-64" value="" style="endArrow=none;html=1;rounded=0;entryX=0.5;entryY=1;entryDx=0;entryDy=0;exitX=0.5;exitY=0;exitDx=0;exitDy=0;" edge="1" parent="WIyWlLk6GJQsqaUBKTNV-1" source="PLwJSdtMmrsDeWvEefyB-61" target="PLwJSdtMmrsDeWvEefyB-62">
          <mxGeometry width="50" height="50" relative="1" as="geometry">
            <mxPoint x="620" y="830" as="sourcePoint" />
            <mxPoint x="670" y="780" as="targetPoint" />
          </mxGeometry>
        </mxCell>
        <mxCell id="PLwJSdtMmrsDeWvEefyB-65" value="Ranking" style="rounded=0;whiteSpace=wrap;html=1;" vertex="1" parent="WIyWlLk6GJQsqaUBKTNV-1">
          <mxGeometry x="80" y="580" width="120" height="60" as="geometry" />
        </mxCell>
        <mxCell id="PLwJSdtMmrsDeWvEefyB-66" value="APARECE_EM" style="rhombus;whiteSpace=wrap;html=1;" vertex="1" parent="WIyWlLk6GJQsqaUBKTNV-1">
          <mxGeometry x="220" y="495" width="120" height="60" as="geometry" />
        </mxCell>
        <mxCell id="PLwJSdtMmrsDeWvEefyB-67" value="" style="endArrow=none;html=1;rounded=0;entryX=0;entryY=0;entryDx=0;entryDy=0;exitX=1;exitY=0.5;exitDx=0;exitDy=0;" edge="1" parent="WIyWlLk6GJQsqaUBKTNV-1" source="PLwJSdtMmrsDeWvEefyB-66" target="PLwJSdtMmrsDeWvEefyB-0">
          <mxGeometry width="50" height="50" relative="1" as="geometry">
            <mxPoint x="520" y="390" as="sourcePoint" />
            <mxPoint x="570" y="340" as="targetPoint" />
          </mxGeometry>
        </mxCell>
        <mxCell id="PLwJSdtMmrsDeWvEefyB-68" value="" style="endArrow=none;html=1;rounded=0;entryX=0;entryY=0.5;entryDx=0;entryDy=0;exitX=1;exitY=0;exitDx=0;exitDy=0;" edge="1" parent="WIyWlLk6GJQsqaUBKTNV-1" source="PLwJSdtMmrsDeWvEefyB-65" target="PLwJSdtMmrsDeWvEefyB-66">
          <mxGeometry width="50" height="50" relative="1" as="geometry">
            <mxPoint x="330" y="400" as="sourcePoint" />
            <mxPoint x="380" y="350" as="targetPoint" />
          </mxGeometry>
        </mxCell>
        <mxCell id="PLwJSdtMmrsDeWvEefyB-69" value="Num_participante" style="ellipse;whiteSpace=wrap;html=1;" vertex="1" parent="WIyWlLk6GJQsqaUBKTNV-1">
          <mxGeometry x="718" y="300" width="110" height="50" as="geometry" />
        </mxCell>
        <mxCell id="PLwJSdtMmrsDeWvEefyB-70" value="" style="endArrow=none;html=1;rounded=0;entryX=0;entryY=0.5;entryDx=0;entryDy=0;exitX=1;exitY=0;exitDx=0;exitDy=0;" edge="1" parent="WIyWlLk6GJQsqaUBKTNV-1" source="PLwJSdtMmrsDeWvEefyB-39" target="PLwJSdtMmrsDeWvEefyB-69">
          <mxGeometry width="50" height="50" relative="1" as="geometry">
            <mxPoint x="710" y="360" as="sourcePoint" />
            <mxPoint x="760" y="310" as="targetPoint" />
          </mxGeometry>
        </mxCell>
        <mxCell id="PLwJSdtMmrsDeWvEefyB-72" value="Status" style="ellipse;whiteSpace=wrap;html=1;" vertex="1" parent="WIyWlLk6GJQsqaUBKTNV-1">
          <mxGeometry x="530" y="260" width="70" height="50" as="geometry" />
        </mxCell>
        <mxCell id="PLwJSdtMmrsDeWvEefyB-73" value="" style="endArrow=none;html=1;rounded=0;entryX=0.671;entryY=0.963;entryDx=0;entryDy=0;entryPerimeter=0;exitX=0.25;exitY=0;exitDx=0;exitDy=0;" edge="1" parent="WIyWlLk6GJQsqaUBKTNV-1" source="PLwJSdtMmrsDeWvEefyB-39" target="PLwJSdtMmrsDeWvEefyB-72">
          <mxGeometry width="50" height="50" relative="1" as="geometry">
            <mxPoint x="520" y="370" as="sourcePoint" />
            <mxPoint x="570" y="320" as="targetPoint" />
          </mxGeometry>
        </mxCell>
        <mxCell id="PLwJSdtMmrsDeWvEefyB-74" value="Comentário" style="ellipse;whiteSpace=wrap;html=1;" vertex="1" parent="WIyWlLk6GJQsqaUBKTNV-1">
          <mxGeometry x="460" y="920" width="70" height="40" as="geometry" />
        </mxCell>
        <mxCell id="PLwJSdtMmrsDeWvEefyB-75" value="" style="endArrow=none;html=1;rounded=0;entryX=0;entryY=1;entryDx=0;entryDy=0;exitX=0.5;exitY=0;exitDx=0;exitDy=0;" edge="1" parent="WIyWlLk6GJQsqaUBKTNV-1" source="PLwJSdtMmrsDeWvEefyB-74" target="PLwJSdtMmrsDeWvEefyB-61">
          <mxGeometry width="50" height="50" relative="1" as="geometry">
            <mxPoint x="460" y="910" as="sourcePoint" />
            <mxPoint x="510" y="860" as="targetPoint" />
          </mxGeometry>
        </mxCell>
        <mxCell id="PLwJSdtMmrsDeWvEefyB-76" value="Posição" style="ellipse;whiteSpace=wrap;html=1;" vertex="1" parent="WIyWlLk6GJQsqaUBKTNV-1">
          <mxGeometry x="40" y="690" width="60" height="40" as="geometry" />
        </mxCell>
        <mxCell id="PLwJSdtMmrsDeWvEefyB-77" value="" style="endArrow=none;html=1;rounded=0;entryX=0.25;entryY=1;entryDx=0;entryDy=0;exitX=0.5;exitY=0;exitDx=0;exitDy=0;" edge="1" parent="WIyWlLk6GJQsqaUBKTNV-1" source="PLwJSdtMmrsDeWvEefyB-76" target="PLwJSdtMmrsDeWvEefyB-65">
          <mxGeometry width="50" height="50" relative="1" as="geometry">
            <mxPoint x="230" y="530" as="sourcePoint" />
            <mxPoint x="280" y="480" as="targetPoint" />
          </mxGeometry>
        </mxCell>
      </root>
    </mxGraphModel>
  </diagram>
</mxfile>
